<svg width="181" height="193" viewBox="0 0 181 193" fill="none" xmlns="http://www.w3.org/2000/svg">
<g filter="url(#filter0_d)">
<path d="M74.5169 176.087C62.9546 172.654 52.2857 166.727 43.2617 158.725C34.2377 150.722 27.0781 140.838 22.2873 129.77C17.4965 118.701 15.191 106.716 15.5332 94.6594C15.8754 82.603 18.8569 70.7683 24.2679 59.9889C29.6788 49.2095 37.3874 39.7476 46.8507 32.2698C56.3141 24.7919 67.302 19.48 79.0404 16.7081C90.7788 13.9363 102.982 13.772 114.791 16.2268C126.6 18.6816 137.727 23.6958 147.388 30.9161" stroke="#C8A2C8"/>
</g>
<path d="M177.202 120.092C171.62 139.238 159.292 155.714 142.498 166.471C125.705 177.227 105.583 181.537 85.8569 178.601C66.1309 175.666 48.136 165.685 35.2021 150.504C22.2683 135.323 15.2712 115.972 15.5057 96.0299C15.7402 76.0881 23.1905 56.9062 36.4777 42.034C49.765 27.1619 67.9897 17.6063 87.7792 15.1356C107.569 12.6648 127.584 17.4463 144.119 28.595C160.655 39.7437 172.593 56.505 177.723 75.7771" stroke="white" stroke-opacity="0.3"/>
<defs>
<filter id="filter0_d" x="0" y="0" width="162.687" height="192.567" filterUnits="userSpaceOnUse" color-interpolation-filters="sRGB">
<feFlood flood-opacity="0" result="BackgroundImageFix"/>
<feColorMatrix in="SourceAlpha" type="matrix" values="0 0 0 0 0 0 0 0 0 0 0 0 0 0 0 0 0 0 127 0"/>
<feOffset dy="1"/>
<feGaussianBlur stdDeviation="7.5"/>
<feColorMatrix type="matrix" values="0 0 0 0 0.8 0 0 0 0 1 0 0 0 0 0 0 0 0 1 0"/>
<feBlend mode="normal" in2="BackgroundImageFix" result="effect1_dropShadow"/>
<feBlend mode="normal" in="SourceGraphic" in2="effect1_dropShadow" result="shape"/>
</filter>
</defs>
</svg>
